<svg width="45" height="41" viewBox="0 0 45 41" fill="none" xmlns="http://www.w3.org/2000/svg">
<path d="M28.1426 19.4277L23.7744 28.1641C23.2471 29.2275 21.7178 29.1924 21.2344 28.1113L16.2334 17.0107L13.5967 23.3125H5.32617L21.3662 39.7041C21.9902 40.3457 23.001 40.3457 23.625 39.7041L39.6738 23.3125H30.085L28.1426 19.4277ZM41.6338 4.49512L41.4228 4.27539C36.8965 -0.347656 29.4873 -0.347656 24.9521 4.27539L22.5 6.78906L20.0478 4.28418C15.5215 -0.347657 8.10351 -0.347657 3.57714 4.28418L3.3662 4.49512C-0.914069 8.87207 -1.09864 15.8418 2.7246 20.5H11.7246L14.8799 12.9238C15.3545 11.79 16.9541 11.7637 17.4639 12.8887L22.5791 24.2529L26.8857 15.6484C27.4043 14.6113 28.8809 14.6113 29.3994 15.6484L31.8252 20.5H42.2754C46.0986 15.8418 45.9141 8.87207 41.6338 4.49512Z" fill="#8556AA"/>
</svg>
